<svg width="568" height="146" viewBox="0 0 568 146" fill="none" xmlns="http://www.w3.org/2000/svg">
<path d="M21.96 63.08C23.96 59.4 26.92 56.6 30.84 54.68C34.76 52.76 39.52 51.8 45.12 51.8V62.96C44.48 62.88 43.6 62.84 42.48 62.84C36.24 62.84 31.32 64.72 27.72 68.48C24.2 72.16 22.44 77.44 22.44 84.32V116H10.92V52.4H21.96V63.08ZM133.013 84.56C133.013 85.44 132.933 86.6 132.773 88.04H81.1725C81.8925 93.64 84.3325 98.16 88.4925 101.6C92.7325 104.96 97.9725 106.64 104.213 106.64C111.813 106.64 117.933 104.08 122.573 98.96L128.933 106.4C126.053 109.76 122.453 112.32 118.133 114.08C113.893 115.84 109.133 116.72 103.853 116.72C97.1325 116.72 91.1725 115.36 85.9725 112.64C80.7725 109.84 76.7325 105.96 73.8525 101C71.0525 96.04 69.6525 90.44 69.6525 84.2C69.6525 78.04 71.0125 72.48 73.7325 67.52C76.5325 62.56 80.3325 58.72 85.1325 56C90.0125 53.2 95.4925 51.8 101.573 51.8C107.653 51.8 113.053 53.2 117.773 56C122.573 58.72 126.293 62.56 128.933 67.52C131.653 72.48 133.013 78.16 133.013 84.56ZM101.573 61.52C96.0525 61.52 91.4125 63.2 87.6525 66.56C83.9725 69.92 81.8125 74.32 81.1725 79.76H121.973C121.333 74.4 119.133 70.04 115.373 66.68C111.693 63.24 107.093 61.52 101.573 61.52ZM201.569 112.28C199.889 113.72 197.809 114.84 195.329 115.64C192.849 116.36 190.289 116.72 187.649 116.72C181.249 116.72 176.289 115 172.769 111.56C169.249 108.12 167.489 103.2 167.489 96.8V61.88H156.689V52.4H167.489V38.48H179.009V52.4H197.249V61.88H179.009V96.32C179.009 99.76 179.849 102.4 181.529 104.24C183.289 106.08 185.769 107 188.969 107C192.489 107 195.489 106 197.969 104L201.569 112.28ZM287.667 84.56C287.667 85.44 287.587 86.6 287.427 88.04H235.827C236.547 93.64 238.987 98.16 243.147 101.6C247.387 104.96 252.627 106.64 258.867 106.64C266.467 106.64 272.587 104.08 277.227 98.96L283.587 106.4C280.707 109.76 277.107 112.32 272.787 114.08C268.547 115.84 263.787 116.72 258.507 116.72C251.787 116.72 245.827 115.36 240.627 112.64C235.427 109.84 231.387 105.96 228.507 101C225.707 96.04 224.307 90.44 224.307 84.2C224.307 78.04 225.667 72.48 228.387 67.52C231.187 62.56 234.987 58.72 239.787 56C244.667 53.2 250.147 51.8 256.227 51.8C262.307 51.8 267.707 53.2 272.427 56C277.227 58.72 280.947 62.56 283.587 67.52C286.307 72.48 287.667 78.16 287.667 84.56ZM256.227 61.52C250.707 61.52 246.067 63.2 242.307 66.56C238.627 69.92 236.467 74.32 235.827 79.76H276.627C275.987 74.4 273.787 70.04 270.027 66.68C266.347 63.24 261.747 61.52 256.227 61.52ZM331.504 63.08C333.504 59.4 336.464 56.6 340.384 54.68C344.304 52.76 349.064 51.8 354.664 51.8V62.96C354.024 62.88 353.144 62.84 352.024 62.84C345.784 62.84 340.864 64.72 337.264 68.48C333.744 72.16 331.984 77.44 331.984 84.32V116H320.464V52.4H331.504V63.08ZM385.662 52.4H397.182V116H385.662V52.4ZM391.422 40.16C389.182 40.16 387.302 39.44 385.782 38C384.342 36.56 383.622 34.8 383.622 32.72C383.622 30.64 384.342 28.88 385.782 27.44C387.302 25.92 389.182 25.16 391.422 25.16C393.662 25.16 395.502 25.88 396.942 27.32C398.462 28.68 399.222 30.4 399.222 32.48C399.222 34.64 398.462 36.48 396.942 38C395.502 39.44 393.662 40.16 391.422 40.16ZM463.218 116.72C456.898 116.72 451.218 115.32 446.178 112.52C441.138 109.72 437.178 105.88 434.298 101C431.498 96.04 430.098 90.44 430.098 84.2C430.098 77.96 431.498 72.4 434.298 67.52C437.178 62.56 441.138 58.72 446.178 56C451.218 53.2 456.898 51.8 463.218 51.8C469.538 51.8 475.178 53.2 480.138 56C485.178 58.72 489.098 62.56 491.898 67.52C494.778 72.4 496.218 77.96 496.218 84.2C496.218 90.44 494.778 96.04 491.898 101C489.098 105.88 485.178 109.72 480.138 112.52C475.178 115.32 469.538 116.72 463.218 116.72ZM463.218 106.64C467.298 106.64 470.938 105.72 474.138 103.88C477.418 101.96 479.978 99.32 481.818 95.96C483.658 92.52 484.578 88.6 484.578 84.2C484.578 79.8 483.658 75.92 481.818 72.56C479.978 69.12 477.418 66.48 474.138 64.64C470.938 62.8 467.298 61.88 463.218 61.88C459.138 61.88 455.458 62.8 452.178 64.64C448.978 66.48 446.418 69.12 444.498 72.56C442.658 75.92 441.738 79.8 441.738 84.2C441.738 88.6 442.658 92.52 444.498 95.96C446.418 99.32 448.978 101.96 452.178 103.88C455.458 105.72 459.138 106.64 463.218 106.64ZM539.99 63.08C541.99 59.4 544.95 56.6 548.87 54.68C552.79 52.76 557.55 51.8 563.15 51.8V62.96C562.51 62.88 561.63 62.84 560.51 62.84C554.27 62.84 549.35 64.72 545.75 68.48C542.23 72.16 540.47 77.44 540.47 84.32V116H528.95V52.4H539.99V63.08Z" fill="#444444"/>
<g clip-path="url(#clip0_28_301)">
<mask id="mask0_28_301" style="mask-type:alpha" maskUnits="userSpaceOnUse" x="-152" y="19" width="789" height="132">
<path d="M-136.2 73.6856C-133.343 68.4285 -129.114 64.4285 -123.514 61.6856C-117.914 58.9428 -111.114 57.5714 -103.114 57.5714V73.5142C-104.028 73.3999 -105.286 73.3428 -106.886 73.3428C-115.8 73.3428 -122.828 76.0285 -127.971 81.3999C-133 86.6571 -135.514 94.1999 -135.514 104.029V149.286H-151.971V58.4285H-136.2V73.6856ZM22.4466 104.371C22.4466 105.628 22.3323 107.286 22.1037 109.343H-51.6106C-50.582 117.343 -47.0963 123.8 -41.1534 128.714C-35.0963 133.514 -27.6106 135.914 -18.6963 135.914C-7.83914 135.914 0.903716 132.257 7.53229 124.943L16.618 135.571C12.5037 140.371 7.36086 144.029 1.18943 146.543C-4.86771 149.057 -11.6677 150.314 -19.2106 150.314C-28.8106 150.314 -37.3249 148.371 -44.7534 144.486C-52.182 140.486 -57.9534 134.943 -62.0677 127.857C-66.0677 120.771 -68.0677 112.771 -68.0677 103.857C-68.0677 95.0571 -66.1249 87.1142 -62.2391 80.0285C-58.2391 72.9428 -52.8106 67.4571 -45.9534 63.5714C-38.982 59.5714 -31.1534 57.5714 -22.4677 57.5714C-13.782 57.5714 -6.06771 59.5714 0.675146 63.5714C7.53229 67.4571 12.8466 72.9428 16.618 80.0285C20.5037 87.1142 22.4466 95.2285 22.4466 104.371ZM-22.4677 71.4571C-30.3534 71.4571 -36.982 73.8571 -42.3534 78.6571C-47.6106 83.4571 -50.6963 89.7428 -51.6106 97.5142H6.67515C5.76086 89.8571 2.618 83.6285 -2.75343 78.8285C-8.01057 73.9142 -14.582 71.4571 -22.4677 71.4571ZM120.385 143.971C117.985 146.029 115.013 147.629 111.47 148.771C107.927 149.8 104.27 150.314 100.499 150.314C91.356 150.314 84.2702 147.857 79.2417 142.943C74.2131 138.029 71.6988 131 71.6988 121.857V71.9714H56.2702V58.4285H71.6988V38.5428H88.156V58.4285H114.213V71.9714H88.156V121.171C88.156 126.086 89.356 129.857 91.756 132.486C94.2702 135.114 97.8131 136.429 102.385 136.429C107.413 136.429 111.699 135 115.242 132.143L120.385 143.971ZM243.382 104.371C243.382 105.628 243.268 107.286 243.039 109.343H169.325C170.353 117.343 173.839 123.8 179.782 128.714C185.839 133.514 193.325 135.914 202.239 135.914C213.096 135.914 221.839 132.257 228.468 124.943L237.553 135.571C233.439 140.371 228.296 144.029 222.125 146.543C216.068 149.057 209.268 150.314 201.725 150.314C192.125 150.314 183.61 148.371 176.182 144.486C168.753 140.486 162.982 134.943 158.868 127.857C154.868 120.771 152.868 112.771 152.868 103.857C152.868 95.0571 154.81 87.1142 158.696 80.0285C162.696 72.9428 168.125 67.4571 174.982 63.5714C181.953 59.5714 189.782 57.5714 198.468 57.5714C207.153 57.5714 214.868 59.5714 221.61 63.5714C228.468 67.4571 233.782 72.9428 237.553 80.0285C241.439 87.1142 243.382 95.2285 243.382 104.371ZM198.468 71.4571C190.582 71.4571 183.953 73.8571 178.582 78.6571C173.325 83.4571 170.239 89.7428 169.325 97.5142H227.61C226.696 89.8571 223.553 83.6285 218.182 78.8285C212.925 73.9142 206.353 71.4571 198.468 71.4571ZM306.006 73.6856C308.863 68.4285 313.091 64.4285 318.691 61.6856C324.291 58.9428 331.091 57.5714 339.091 57.5714V73.5142C338.177 73.3999 336.92 73.3428 335.32 73.3428C326.406 73.3428 319.377 76.0285 314.234 81.3999C309.206 86.6571 306.691 94.1999 306.691 104.029V149.286H290.234V58.4285H306.006V73.6856ZM383.375 58.4285H399.832V149.286H383.375V58.4285ZM391.603 40.9428C388.403 40.9428 385.718 39.9142 383.546 37.8571C381.489 35.7999 380.46 33.2856 380.46 30.3142C380.46 27.3428 381.489 24.8285 383.546 22.7714C385.718 20.5999 388.403 19.5142 391.603 19.5142C394.803 19.5142 397.432 20.5428 399.489 22.5999C401.66 24.5428 402.746 26.9999 402.746 29.9714C402.746 33.0571 401.66 35.6856 399.489 37.8571C397.432 39.9142 394.803 40.9428 391.603 40.9428ZM494.168 150.314C485.14 150.314 477.026 148.314 469.826 144.314C462.626 140.314 456.968 134.829 452.854 127.857C448.854 120.771 446.854 112.771 446.854 103.857C446.854 94.9428 448.854 86.9999 452.854 80.0285C456.968 72.9428 462.626 67.4571 469.826 63.5714C477.026 59.5714 485.14 57.5714 494.168 57.5714C503.197 57.5714 511.254 59.5714 518.34 63.5714C525.54 67.4571 531.14 72.9428 535.14 80.0285C539.254 86.9999 541.311 94.9428 541.311 103.857C541.311 112.771 539.254 120.771 535.14 127.857C531.14 134.829 525.54 140.314 518.34 144.314C511.254 148.314 503.197 150.314 494.168 150.314ZM494.168 135.914C499.997 135.914 505.197 134.6 509.768 131.971C514.454 129.229 518.111 125.457 520.74 120.657C523.368 115.743 524.683 110.143 524.683 103.857C524.683 97.5714 523.368 92.0285 520.74 87.2285C518.111 82.3142 514.454 78.5428 509.768 75.9142C505.197 73.2856 499.997 71.9714 494.168 71.9714C488.34 71.9714 483.083 73.2856 478.397 75.9142C473.826 78.5428 470.168 82.3142 467.426 87.2285C464.797 92.0285 463.483 97.5714 463.483 103.857C463.483 110.143 464.797 115.743 467.426 120.657C470.168 125.457 473.826 129.229 478.397 131.971C483.083 134.6 488.34 135.914 494.168 135.914ZM603.843 73.6856C606.7 68.4285 610.928 64.4285 616.528 61.6856C622.128 58.9428 628.928 57.5714 636.928 57.5714V73.5142C636.014 73.3999 634.757 73.3428 633.157 73.3428C624.243 73.3428 617.214 76.0285 612.071 81.3999C607.043 86.6571 604.528 94.1999 604.528 104.029V149.286H588.071V58.4285H603.843V73.6856Z" fill="black"/>
</mask>
<g mask="url(#mask0_28_301)">
<rect x="378.143" y="16.1426" width="27.1429" height="25.7143" fill="url(#paint0_linear_28_301)"/>
</g>
</g>
<defs>
<linearGradient id="paint0_linear_28_301" x1="378.143" y1="28.9997" x2="405.286" y2="28.9997" gradientUnits="userSpaceOnUse">
<stop stop-color="#00F5A0"/>
<stop offset="1" stop-color="#00D9F5"/>
</linearGradient>
<clipPath id="clip0_28_301">
<rect width="40" height="40" fill="white" transform="translate(371 9)"/>
</clipPath>
</defs>
</svg>
